<svg width="40" height="40" viewBox="0 0 30 30" fill="none" xmlns="http://www.w3.org/2000/svg">
<path d="M0 15C0 23.2839 6.71611 30 15 30C23.2839 30 30 23.2839 30 15C30 6.71611 23.2839 0 15 0C6.71611 0 0 6.71611 0 15ZM15.3353 8.41154C15.4429 8.51826 15.5285 8.64513 15.587 8.78491C15.6456 8.92469 15.676 9.07463 15.6766 9.22618C15.6772 9.37773 15.648 9.52791 15.5905 9.66815C15.5331 9.80839 15.4486 9.93594 15.3418 10.0435L11.5687 13.8462H21.2019C21.5079 13.8462 21.8014 13.9677 22.0178 14.1841C22.2342 14.4005 22.3558 14.694 22.3558 15C22.3558 15.306 22.2342 15.5995 22.0178 15.8159C21.8014 16.0323 21.5079 16.1538 21.2019 16.1538H11.5687L15.3418 19.9565C15.4486 20.0642 15.533 20.1918 15.5904 20.3321C15.6478 20.4725 15.677 20.6227 15.6764 20.7743C15.6757 20.9259 15.6452 21.0759 15.5865 21.2157C15.5279 21.3556 15.4423 21.4825 15.3346 21.5892C15.2269 21.6959 15.0993 21.7804 14.959 21.8378C14.8186 21.8952 14.6684 21.9244 14.5168 21.9237C14.3652 21.923 14.2152 21.8925 14.0754 21.8339C13.9355 21.7753 13.8087 21.6896 13.7019 21.582L7.97668 15.8127C7.76222 15.5966 7.64187 15.3045 7.64187 15C7.64187 14.6955 7.76222 14.4034 7.97668 14.1873L13.7019 8.41803C13.8087 8.31021 13.9356 8.22451 14.0755 8.16582C14.2155 8.10713 14.3656 8.07661 14.5173 8.07601C14.669 8.07541 14.8194 8.10473 14.9597 8.16231C15.1001 8.21988 15.2277 8.30457 15.3353 8.41154V8.41154Z" fill="#EDEDED"/>
</svg>
