<svg width="36" height="36" viewBox="0 0 36 36" fill="none" xmlns="http://www.w3.org/2000/svg">
<path d="M4.21999 23.2L2.31999 31.4C2.25445 31.6997 2.2567 32.0104 2.32657 32.3091C2.39644 32.6079 2.53218 32.8873 2.72386 33.1269C2.91554 33.3665 3.15832 33.5603 3.43447 33.694C3.71062 33.8278 4.01316 33.8981 4.31999 33.9C4.46296 33.9144 4.60702 33.9144 4.74999 33.9L13 32L28.84 16.22L20 7.39999L4.21999 23.2Z" fill="url(#paint0_linear_58_576)"/>
<path d="M33.82 8.32L27.92 2.42C27.5321 2.03407 27.0072 1.81741 26.46 1.81741C25.9128 1.81741 25.3879 2.03407 25 2.42L21.72 5.7L30.55 14.53L33.83 11.25C34.022 11.0571 34.174 10.8282 34.2774 10.5765C34.3808 10.3247 34.4335 10.0551 34.4326 9.78293C34.4317 9.51078 34.3771 9.24149 34.272 8.99047C34.1668 8.73944 34.0133 8.51161 33.82 8.32V8.32Z" fill="url(#paint1_linear_58_576)"/>
<defs>
<linearGradient id="paint0_linear_58_576" x1="2.27245" y1="33.9108" x2="28.7832" y2="7.34334" gradientUnits="userSpaceOnUse">
<stop stop-color="#A8700A"/>
<stop offset="1" stop-color="#F5B440"/>
</linearGradient>
<linearGradient id="paint1_linear_58_576" x1="21.72" y1="14.53" x2="34.4326" y2="1.8174" gradientUnits="userSpaceOnUse">
<stop stop-color="#A8700A"/>
<stop offset="1" stop-color="#F5B440"/>
</linearGradient>
</defs>
</svg>
